ffmpeg version 6.1.1-3ubuntu5 Copyright (c) 2000-2023 the FFmpeg developers
  built with gcc 13 (Ubuntu 13.2.0-23ubuntu3)
  configuration: --prefix=/usr --extra-version=3ubuntu5 --toolchain=hardened --libdir=/usr/lib/x86_64-linux-gnu --incdir=/usr/include/x86_64-linux-gnu --arch=amd64 --enable-gpl --disable-stripping --disable-omx --enable-gnutls --enable-libaom --enable-libass --enable-libbs2b --enable-libcaca --enable-libcdio --enable-libcodec2 --enable-libdav1d --enable-libflite --enable-libfontconfig --enable-libfreetype --enable-libfribidi --enable-libglslang --enable-libgme --enable-libgsm --enable-libharfbuzz --enable-libmp3lame --enable-libmysofa --enable-libopenjpeg --enable-libopenmpt --enable-libopus --enable-librubberband --enable-libshine --enable-libsnappy --enable-libsoxr --enable-libspeex --enable-libtheora --enable-libtwolame --enable-libvidstab --enable-libvorbis --enable-libvpx --enable-libwebp --enable-libx265 --enable-libxml2 --enable-libxvid --enable-libzimg --enable-openal --enable-opencl --enable-opengl --disable-sndio --enable-libvpl --disable-libmfx --enable-libdc1394 --enable-libdrm --enable-libiec61883 --enable-chromaprint --enable-frei0r --enable-ladspa --enable-libbluray --enable-libjack --enable-libpulse --enable-librabbitmq --enable-librist --enable-libsrt --enable-libssh --enable-libsvtav1 --enable-libx264 --enable-libzmq --enable-libzvbi --enable-lv2 --enable-sdl2 --enable-libplacebo --enable-librav1e --enable-pocketsphinx --enable-librsvg --enable-libjxl --enable-shared
  libavutil      58. 29.100 / 58. 29.100
  libavcodec     60. 31.102 / 60. 31.102
  libavformat    60. 16.100 / 60. 16.100
  libavdevice    60.  3.100 / 60.  3.100
  libavfilter     9. 12.100 /  9. 12.100
  libswscale      7.  5.100 /  7.  5.100
  libswresample   4. 12.100 /  4. 12.100
  libpostproc    57.  3.100 / 57.  3.100
Routing option strict to both codec and muxer layer
[Parsed_scale_0 @ 0x5ac6f37b51c0] w:1280 h:720 flags:'' interl:0
[Parsed_scale_2 @ 0x5ac6f37c2880] w:1280 h:720 flags:'' interl:0
-vsync is deprecated. Use -fps_mode
Passing a number to -vsync is deprecated, use a string argument as described in the manual.
[h264 @ 0x5ac6f37cb940] Reinit context to 848x480, pix_fmt: yuv420p
Input #0, mov,mp4,m4a,3gp,3g2,mj2, from '/var/www/html/project/media/video/original/1000259577.mp4':
  Metadata:
    major_brand     : mp42
    minor_version   : 0
    compatible_brands: mp42isom
  Duration: 00:00:08.96, start: 0.000000, bitrate: 1694 kb/s
  Stream #0:0[0x1](und): Video: h264 (High), 1 reference frame (avc1 / 0x31637661), yuv420p(tv, bt709, progressive, left), 848x478 (848x480), 1443 kb/s, 29.95 fps, 29.97 tbr, 90k tbn (default)
    Metadata:
      vendor_id       : [0][0][0][0]
  Stream #0:1[0x2](und): Audio: aac (LC) (mp4a / 0x6134706D), 48000 Hz, stereo, fltp, 254 kb/s (default)
    Metadata:
      vendor_id       : [0][0][0][0]
Input #1, png_pipe, from '/var/www/html/project/static/images/templates/logo.png':
  Duration: N/A, bitrate: N/A
  Stream #1:0: Video: png, 1 reference frame, rgba(pc, gbr/unknown/unknown), 1920x1080 [SAR 2835:2835 DAR 16:9], 25 fps, 25 tbr, 25 tbn
[out#0/mp4 @ 0x5ac6f464bbc0] Creating output stream from unlabeled output of complex filtergraph 0. This overrides automatic video mapping.
[vost#0:0/libx264 @ 0x5ac6f464c940] Created video stream from complex filtergraph 0:[overlay:default]
[vost#0:0/libx264 @ 0x5ac6f464c940] 
[out#0/mp4 @ 0x5ac6f464bbc0] No explicit maps, mapping streams automatically...
[aost#0:1/aac @ 0x5ac6f464e340] Created audio stream from input stream 0:1
Stream mapping:
  Stream #0:0 (h264) -> scale:default (graph 0)
  Stream #1:0 (png) -> scale:default (graph 0)
  overlay:default (graph 0) -> Stream #0:0 (libx264)
  Stream #0:1 -> #0:1 (aac (native) -> aac (native))
Press [q] to stop, [?] for help
[h264 @ 0x5ac6f385cc80] Reinit context to 848x480, pix_fmt: yuv420p
[graph_1_in_0_1 @ 0x5ac6f37b51c0] tb:1/48000 samplefmt:fltp samplerate:48000 chlayout:stereo
[in#1/png_pipe @ 0x5ac6f37b56c0] EOF while reading input
[in#1/png_pipe @ 0x5ac6f37b56c0] Terminating demuxer thread
[vist#1:0/png @ 0x5ac6f3989ec0] Decoder thread received EOF packet
[vist#1:0/png @ 0x5ac6f3989ec0] Decoder returned EOF, finishing
[vist#1:0/png @ 0x5ac6f3989ec0] Terminating decoder thread
[Parsed_scale_0 @ 0x5ac6f485b2c0] w:1280 h:720 flags:'' interl:0
[Parsed_scale_2 @ 0x5ac6f4868580] w:1280 h:720 flags:'' interl:0
[graph 0 input from stream 0:0 @ 0x5ac6f48763c0] w:848 h:478 pixfmt:yuv420p tb:1/90000 fr:30000/1001 sar:0/1
[graph 0 input from stream 1:0 @ 0x5ac6f4876640] w:1920 h:1080 pixfmt:rgba tb:1/25 fr:25/1 sar:2835/2835
[Parsed_scale_0 @ 0x5ac6f485b2c0] w:848 h:478 fmt:yuv420p sar:0/1 -> w:1280 h:720 fmt:yuv420p sar:0/1 flags:0x00000004
[Parsed_setsar_1 @ 0x5ac6f4868380] w:1280 h:720 sar:0/1 dar:16/9 -> sar:1/1 dar:16/9
[Parsed_scale_2 @ 0x5ac6f4868580] w:1920 h:1080 fmt:rgba sar:2835/2835 -> w:1280 h:720 fmt:yuva420p sar:1/1 flags:0x00000004
[Parsed_setsar_3 @ 0x5ac6f48756c0] w:1280 h:720 sar:1/1 dar:16/9 -> sar:1/1 dar:16/9
[Parsed_overlay_4 @ 0x5ac6f4875980] main w:1280 h:720 fmt:yuv420p overlay w:1280 h:720 fmt:yuva420p
[Parsed_overlay_4 @ 0x5ac6f4875980] [framesync @ 0x5ac6f37d0928] Selected 1/90000 time base
[Parsed_overlay_4 @ 0x5ac6f4875980] [framesync @ 0x5ac6f37d0928] Sync level 2
[Parsed_scale_0 @ 0x5ac6f485b2c0] w:848 h:478 fmt:yuv420p sar:0/1 -> w:1280 h:720 fmt:yuv420p sar:0/1 flags:0x00000004
    Last message repeated 2 times
[Parsed_scale_2 @ 0x5ac6f4868580] w:1920 h:1080 fmt:rgba sar:2835/2835 -> w:1280 h:720 fmt:yuva420p sar:1/1 flags:0x00000004
    Last message repeated 2 times
[libx264 @ 0x5ac6f464cd00] using SAR=1/1
[libx264 @ 0x5ac6f464cd00] using cpu capabilities: MMX2 SSE2Fast SSSE3 SSE4.2 AVX FMA3 BMI2 AVX2
[libx264 @ 0x5ac6f464cd00] profile High, level 3.1, 4:2:0, 8-bit
[libx264 @ 0x5ac6f464cd00] 264 - core 164 r3108 31e19f9 - H.264/MPEG-4 AVC codec - Copyleft 2003-2023 - http://www.videolan.org/x264.html - options: cabac=1 ref=1 deblock=1:0:0 analyse=0x3:0x113 me=hex subme=2 psy=1 psy_rd=1.00:0.00 mixed_ref=0 me_range=16 chroma_me=1 trellis=0 8x8dct=1 cqm=0 deadzone=21,11 fast_pskip=1 chroma_qp_offset=0 threads=22 lookahead_threads=5 sliced_threads=0 nr=0 decimate=1 interlaced=0 bluray_compat=0 constrained_intra=0 bframes=3 b_pyramid=2 b_adapt=1 b_bias=0 direct=1 weightb=1 open_gop=0 weightp=1 keyint=250 keyint_min=25 scenecut=40 intra_refresh=0 rc_lookahead=10 rc=crf mbtree=1 crf=18.0 qcomp=0.60 qpmin=0 qpmax=69 qpstep=4 ip_ratio=1.40 aq=1:1.00
Output #0, mp4, to '/var/www/html/project/media/video/watermarks/1000259577.mp4':
  Metadata:
    major_brand     : mp42
    minor_version   : 0
    compatible_brands: mp42isom
    encoder         : Lavf60.16.100
  Stream #0:0: Video: h264, 1 reference frame (avc1 / 0x31637661), yuv420p(tv, bt709, progressive, left), 1280x720 (0x0) [SAR 1:1 DAR 16:9], q=2-31, 29.97 fps, 30k tbn
    Metadata:
      encoder         : Lavc60.31.102 libx264
    Side data:
      cpb: bitrate max/min/avg: 0/0/0 buffer size: 0 vbv_delay: N/A
  Stream #0:1(und): Audio: aac (LC) (mp4a / 0x6134706D), 48000 Hz, stereo, fltp, delay 1024, 128 kb/s (default)
    Metadata:
      vendor_id       : [0][0][0][0]
      encoder         : Lavc60.31.102 aac
[in#0/mov,mp4,m4a,3gp,3g2,mj2 @ 0x5ac6f37cad80] EOF while reading input
[in#0/mov,mp4,m4a,3gp,3g2,mj2 @ 0x5ac6f37cad80] Terminating demuxer thread
[vist#0:0/h264 @ 0x5ac6f3988bc0] Decoder thread received EOF packet
[vist#0:0/h264 @ 0x5ac6f3988bc0] Decoder returned EOF, finishing
[vist#0:0/h264 @ 0x5ac6f3988bc0] Terminating decoder thread
[Parsed_overlay_4 @ 0x5ac6f4875980] [framesync @ 0x5ac6f37d0928] Sync level 0
[aist#0:1/aac @ 0x5ac6f3817100] Decoder thread received EOF packet
[aist#0:1/aac @ 0x5ac6f3817100] Decoder returned EOF, finishing
[aist#0:1/aac @ 0x5ac6f3817100] Terminating decoder thread
No more output streams to write to, finishing.
[out#0/mp4 @ 0x5ac6f464bbc0] All streams finished
[out#0/mp4 @ 0x5ac6f464bbc0] Terminating muxer thread
[AVIOContext @ 0x5ac6f47b22c0] Statistics: 6387416 bytes written, 2 seeks, 28 writeouts
[out#0/mp4 @ 0x5ac6f464bbc0] Output file #0 (/var/www/html/project/media/video/watermarks/1000259577.mp4):
[out#0/mp4 @ 0x5ac6f464bbc0]   Output stream #0:0 (video): 267 frames encoded; 267 packets muxed (6238997 bytes); 
[out#0/mp4 @ 0x5ac6f464bbc0]   Output stream #0:1 (audio): 417 frames encoded (427008 samples); 418 packets muxed (137174 bytes); 
[out#0/mp4 @ 0x5ac6f464bbc0]   Total: 685 packets (6376171 bytes) muxed
[out#0/mp4 @ 0x5ac6f464bbc0] video:6093kB audio:134kB subtitle:0kB other streams:0kB global headers:0kB muxing overhead: 0.176297%
frame=  267 fps=143 q=-1.0 Lsize=    6238kB time=00:00:08.94 bitrate=5714.7kbits/s speed=4.79x    
[AVIOContext @ 0x5ac6f37c26c0] Statistics: 989 bytes written, 0 seeks, 5 writeouts
[libx264 @ 0x5ac6f464cd00] frame I:2     Avg QP:18.16  size:120213
[libx264 @ 0x5ac6f464cd00] frame P:67    Avg QP:20.12  size: 48173
[libx264 @ 0x5ac6f464cd00] frame B:198   Avg QP:23.40  size: 13991
[libx264 @ 0x5ac6f464cd00] consecutive B-frames:  1.1%  0.0%  0.0% 98.9%
[libx264 @ 0x5ac6f464cd00] mb I  I16..4:  7.5% 15.8% 76.7%
[libx264 @ 0x5ac6f464cd00] mb P  I16..4:  4.6% 10.1%  7.9%  P16..4: 30.0% 20.8% 19.8%  0.0%  0.0%    skip: 6.9%
[libx264 @ 0x5ac6f464cd00] mb B  I16..4:  1.1%  2.3%  1.6%  B16..8: 24.9% 14.8%  3.8%  direct:10.3%  skip:41.3%  L0:34.4% L1:43.9% BI:21.7%
[libx264 @ 0x5ac6f464cd00] 8x8 transform intra:43.3% inter:29.4%
[libx264 @ 0x5ac6f464cd00] coded y,uvDC,uvAC intra: 70.4% 32.5% 8.6% inter: 25.2% 11.3% 0.7%
[libx264 @ 0x5ac6f464cd00] i16 v,h,dc,p: 22% 50% 18% 10%
[libx264 @ 0x5ac6f464cd00] i8 v,h,dc,ddl,ddr,vr,hd,vl,hu: 17% 38% 15%  4%  5%  4%  7%  4%  7%
[libx264 @ 0x5ac6f464cd00] i4 v,h,dc,ddl,ddr,vr,hd,vl,hu: 19% 26% 12%  6%  8%  6%  9%  6%  8%
[libx264 @ 0x5ac6f464cd00] i8c dc,h,v,p: 58% 22% 16%  3%
[libx264 @ 0x5ac6f464cd00] Weighted P-Frames: Y:6.0% UV:1.5%
[libx264 @ 0x5ac6f464cd00] kb/s:5601.87
[aac @ 0x5ac6f464e700] Qavg: 4077.008
[in#0/mov,mp4,m4a,3gp,3g2,mj2 @ 0x5ac6f37cad80] Input file #0 (/var/www/html/project/media/video/original/1000259577.mp4):
[in#0/mov,mp4,m4a,3gp,3g2,mj2 @ 0x5ac6f37cad80]   Input stream #0:0 (video): 267 packets read (1608220 bytes); 267 frames decoded; 0 decode errors; 
[in#0/mov,mp4,m4a,3gp,3g2,mj2 @ 0x5ac6f37cad80]   Input stream #0:1 (audio): 417 packets read (284754 bytes); 417 frames decoded; 0 decode errors (427008 samples); 
[in#0/mov,mp4,m4a,3gp,3g2,mj2 @ 0x5ac6f37cad80]   Total: 684 packets (1892974 bytes) demuxed
[AVIOContext @ 0x5ac6f37cb140] Statistics: 1897979 bytes read, 0 seeks
[in#1/png_pipe @ 0x5ac6f37b56c0] Input file #1 (/var/www/html/project/static/images/templates/logo.png):
[in#1/png_pipe @ 0x5ac6f37b56c0]   Input stream #1:0 (video): 1 packets read (111578 bytes); 1 frames decoded; 0 decode errors; 
[in#1/png_pipe @ 0x5ac6f37b56c0]   Total: 1 packets (111578 bytes) demuxed
[AVIOContext @ 0x5ac6f398c000] Statistics: 111578 bytes read, 0 seeks
